<mxfile host="app.diagrams.net" modified="2020-10-01T16:33:53.806Z" agent="5.0 (X11; Linux x86_64) AppleWebKit/537.36 (KHTML, like Gecko) Chrome/85.0.4183.121 Safari/537.36" etag="FaDJWTr8lB4-awdtO8IH" version="13.7.5" type="github">
  <diagram id="rk11bjVnA0F38wMF333B" name="Page-1">
    <mxGraphModel dx="801" dy="410" grid="1" gridSize="10" guides="1" tooltips="1" connect="1" arrows="1" fold="1" page="1" pageScale="1" pageWidth="850" pageHeight="1100" math="0" shadow="0">
      <root>
        <mxCell id="0" />
        <mxCell id="1" parent="0" />
        <mxCell id="HMAcgmKzDWIIHweVKq-R-16" value="" style="edgeStyle=none;rounded=0;orthogonalLoop=1;jettySize=auto;html=1;" edge="1" parent="1" source="HMAcgmKzDWIIHweVKq-R-1">
          <mxGeometry relative="1" as="geometry">
            <mxPoint x="360" y="110" as="targetPoint" />
          </mxGeometry>
        </mxCell>
        <mxCell id="HMAcgmKzDWIIHweVKq-R-1" value="Pick a fabric and a tailor" style="rounded=1;whiteSpace=wrap;html=1;" vertex="1" parent="1">
          <mxGeometry x="160" y="80" width="120" height="60" as="geometry" />
        </mxCell>
        <mxCell id="HMAcgmKzDWIIHweVKq-R-2" value="Upload an image (Front, side and rear)" style="rounded=1;whiteSpace=wrap;html=1;" vertex="1" parent="1">
          <mxGeometry x="160" y="170" width="120" height="60" as="geometry" />
        </mxCell>
        <mxCell id="HMAcgmKzDWIIHweVKq-R-19" value="" style="edgeStyle=none;rounded=0;orthogonalLoop=1;jettySize=auto;html=1;" edge="1" parent="1" source="HMAcgmKzDWIIHweVKq-R-3" target="HMAcgmKzDWIIHweVKq-R-18">
          <mxGeometry relative="1" as="geometry" />
        </mxCell>
        <mxCell id="HMAcgmKzDWIIHweVKq-R-3" value="Tailor receives images, predicted mesurement and the fabric from the fabric brand" style="rounded=1;whiteSpace=wrap;html=1;" vertex="1" parent="1">
          <mxGeometry x="160" y="260" width="120" height="80" as="geometry" />
        </mxCell>
        <mxCell id="HMAcgmKzDWIIHweVKq-R-9" value="" style="endArrow=classic;html=1;entryX=1;entryY=0.5;entryDx=0;entryDy=0;" edge="1" parent="1" target="HMAcgmKzDWIIHweVKq-R-3">
          <mxGeometry width="50" height="50" relative="1" as="geometry">
            <mxPoint x="360" y="300" as="sourcePoint" />
            <mxPoint x="440" y="180" as="targetPoint" />
          </mxGeometry>
        </mxCell>
        <mxCell id="HMAcgmKzDWIIHweVKq-R-10" value="" style="endArrow=classic;html=1;exitX=0.5;exitY=1;exitDx=0;exitDy=0;entryX=0.5;entryY=0;entryDx=0;entryDy=0;" edge="1" parent="1" source="HMAcgmKzDWIIHweVKq-R-2" target="HMAcgmKzDWIIHweVKq-R-3">
          <mxGeometry width="50" height="50" relative="1" as="geometry">
            <mxPoint x="390" y="230" as="sourcePoint" />
            <mxPoint x="440" y="180" as="targetPoint" />
          </mxGeometry>
        </mxCell>
        <mxCell id="HMAcgmKzDWIIHweVKq-R-11" value="" style="endArrow=classic;html=1;exitX=0.5;exitY=1;exitDx=0;exitDy=0;" edge="1" parent="1" source="HMAcgmKzDWIIHweVKq-R-1" target="HMAcgmKzDWIIHweVKq-R-2">
          <mxGeometry width="50" height="50" relative="1" as="geometry">
            <mxPoint x="390" y="230" as="sourcePoint" />
            <mxPoint x="440" y="180" as="targetPoint" />
          </mxGeometry>
        </mxCell>
        <mxCell id="HMAcgmKzDWIIHweVKq-R-14" value="" style="endArrow=none;html=1;" edge="1" parent="1">
          <mxGeometry width="50" height="50" relative="1" as="geometry">
            <mxPoint x="360" y="300" as="sourcePoint" />
            <mxPoint x="360" y="110" as="targetPoint" />
          </mxGeometry>
        </mxCell>
        <mxCell id="HMAcgmKzDWIIHweVKq-R-18" value="Deleiver the finished product to the buyer location." style="whiteSpace=wrap;html=1;rounded=1;" vertex="1" parent="1">
          <mxGeometry x="160" y="370" width="120" height="60" as="geometry" />
        </mxCell>
        <mxCell id="HMAcgmKzDWIIHweVKq-R-21" value="" style="edgeStyle=none;rounded=0;orthogonalLoop=1;jettySize=auto;html=1;" edge="1" parent="1" source="HMAcgmKzDWIIHweVKq-R-20" target="HMAcgmKzDWIIHweVKq-R-1">
          <mxGeometry relative="1" as="geometry" />
        </mxCell>
        <mxCell id="HMAcgmKzDWIIHweVKq-R-20" value="&lt;font style=&quot;font-size: 14px&quot;&gt;Open a &lt;b&gt;T&lt;/b&gt;&lt;font data-font-src=&quot;https://fonts.googleapis.com/css?family=Shadows+Into+Light&quot; style=&quot;font-weight: bold ; font-size: 14px&quot; face=&quot;Shadows Into Light&quot;&gt;ai&lt;/font&gt;&lt;font data-font-src=&quot;https://fonts.googleapis.com/css?family=shadows+into+light&quot; style=&quot;font-size: 14px&quot;&gt;&lt;b&gt;lor &lt;/b&gt;app&lt;/font&gt;&lt;/font&gt;" style="rounded=1;whiteSpace=wrap;html=1;" vertex="1" parent="1">
          <mxGeometry x="10" y="80" width="120" height="60" as="geometry" />
        </mxCell>
        <mxCell id="HMAcgmKzDWIIHweVKq-R-22" value="&lt;span style=&quot;background-color: transparent ; font-weight: 700 ; vertical-align: baseline&quot;&gt;&lt;font face=&quot;Shadows Into Light&quot; data-font-src=&quot;https://fonts.googleapis.com/css?family=Shadows+Into+Light&quot; style=&quot;font-size: 12px&quot;&gt;ai&lt;/font&gt;&lt;/span&gt;&lt;span style=&quot;background-color: transparent ; font-weight: 700 ; vertical-align: baseline&quot;&gt;&lt;font face=&quot;maven pro, sans-serif&quot; style=&quot;font-size: 12px&quot;&gt;&lt;font style=&quot;font-size: 12px&quot;&gt;Tape&lt;/font&gt;&lt;br&gt;&lt;/font&gt;&lt;/span&gt;" style="text;html=1;strokeColor=none;fillColor=none;align=center;verticalAlign=middle;whiteSpace=wrap;rounded=0;" vertex="1" parent="1">
          <mxGeometry x="180" y="230" width="40" height="20" as="geometry" />
        </mxCell>
      </root>
    </mxGraphModel>
  </diagram>
</mxfile>
